# xmcd
#
# Track frame offsets:
#	150
#	25706
#	47700
#	68317
#	85989
#	106745
#	126134
#	149943
#	172649
#	194054
#	214009
#	230328
#	251186
#	269321
#	286341
#	306153
#
# Disc length: 4376 seconds
#
# Revision: 0
# Processed by: cddbd v1.5.1PL2 Copyright (c) Steve Scherf et al.
# Submitted via: EasyCDDAExtractor 8.1.2.3
#
DISCID=e4111610
DTITLE=Sale equipe - Au coeur de la haine
DYEAR=2005
DGENRE=Rap
TTITLE0=Au Coeur De La Haine
TTITLE1=On Arrive
TTITLE2=Pas Là Pour Le Style Avec Macc
TTITLE3=Confession
TTITLE4=Ecoeuré Avec Lil' Saï
TTITLE5=Malgré Tout Ca
TTITLE6=Atteinte A La Pudeur
TTITLE7=Jeunesse Consummée Avec Segnor
TTITLE8=Nouvel Opus Avec L' Empreinte
TTITLE9=Carino
TTITLE10=L' Ame En Peine
TTITLE11=Restreint
TTITLE12=Le Rythme De La Jungle
TTITLE13=Génération Peu Importe
TTITLE14=Paroles De Jeunes Avec Psy4 De
TTITLE15=J' Aurais Voulu Vous Dire
EXTD=
EXTT0=
EXTT1=
EXTT2=
EXTT3=
EXTT4=
EXTT5=
EXTT6=
EXTT7=
EXTT8=
EXTT9=
EXTT10=
EXTT11=
EXTT12=
EXTT13=
EXTT14=
EXTT15=
PLAYORDER=
